<?xml version="1.0" encoding="UTF-8" standalone="no"?>
<!DOCTYPE svg PUBLIC "-//W3C//DTD SVG 1.1//EN" "http://www.w3.org/Graphics/SVG/1.1/DTD/svg11.dtd">
<svg width="100%" height="100%" viewBox="0 0 800 800" version="1.1" xmlns="http://www.w3.org/2000/svg" xmlns:xlink="http://www.w3.org/1999/xlink" xml:space="preserve" xmlns:serif="http://www.serif.com/" style="fill-rule:evenodd;clip-rule:evenodd;stroke-linejoin:round;stroke-miterlimit:2;">
    <path d="M593.5,173.25L593.4,173.1C516.927,106.428 411.377,83.432 314.1,112.25C217.047,141.571 141.717,219.021 115.1,316.85C58.735,356.142 25.062,420.661 25.062,489.37C25.062,554.84 55.635,616.691 107.65,656.45C144.419,684.455 189.331,699.731 235.55,699.95L561.55,699.95C654.424,700.824 737.529,640.482 765.45,551.9C793.017,463.388 758.863,366.606 681.85,315C666.846,260.156 636.13,210.876 593.5,173.25ZM202.1,562.25C212.6,567 224,570.25 235.6,570.25L561.5,570.35C606.5,570.35 643,534.1 643,489.4C643,444.7 606.5,408.45 561.5,408.45L561.5,392.3C562.415,342.819 540.508,295.572 502.15,264.3L502.05,264.3C435.1,210.4 336.8,218.7 278.8,282L278.1,282.75C327.9,292.75 372.95,320.3 404.35,361.15L309.9,455.05C296.703,425.998 267.607,407.258 235.697,407.258C195.409,407.258 160.862,437.133 155.05,477C149.991,512.623 169.292,547.538 202.15,562.2L202.1,562.25Z" style="fill:rgb(241,241,241);"/>
</svg>
